<mxfile host="app.diagrams.net" modified="2021-05-29T21:41:00.633Z" agent="5.0 (Macintosh)" etag="2wI8PzQYW7zXtwSBiRso" version="14.7.0" type="github">
  <diagram id="aeUV0L-y4y7bBNDDO7PA" name="Page-1">
    <mxGraphModel dx="2037" dy="1680.5" grid="1" gridSize="10" guides="1" tooltips="1" connect="1" arrows="1" fold="1" page="1" pageScale="0.5" pageWidth="827" pageHeight="1169" math="0" shadow="0">
      <root>
        <mxCell id="0" />
        <mxCell id="1" parent="0" />
        <mxCell id="uYMQuJ2MwAVhW0nK6_kP-122" value="&lt;b&gt;&lt;font style=&quot;font-size: 24px&quot;&gt;main.dart&lt;/font&gt;&lt;/b&gt;" style="whiteSpace=wrap;html=1;labelBackgroundColor=#E6D0DE;align=left;verticalAlign=top;fillColor=#cce5ff;strokeColor=#36393d;" vertex="1" parent="1">
          <mxGeometry x="120" y="-280" width="1220" height="2220" as="geometry" />
        </mxCell>
        <mxCell id="uYMQuJ2MwAVhW0nK6_kP-1" value="void main( ) =&amp;gt; runApp(&lt;b&gt;Quizzler&lt;/b&gt;)" style="rounded=1;whiteSpace=wrap;html=1;fillColor=#ffff88;strokeColor=#36393d;" vertex="1" parent="1">
          <mxGeometry x="170" y="-210" width="120" height="40" as="geometry" />
        </mxCell>
        <mxCell id="uYMQuJ2MwAVhW0nK6_kP-14" value="&lt;font style=&quot;font-size: 16px&quot;&gt;class &lt;b&gt;Quizzler&lt;/b&gt; extends &lt;b&gt;StatelessWidget&lt;/b&gt;&lt;/font&gt;" style="whiteSpace=wrap;html=1;labelBackgroundColor=#E6D0DE;align=left;verticalAlign=top;" vertex="1" parent="1">
          <mxGeometry x="320" y="-80" width="640" height="280" as="geometry" />
        </mxCell>
        <mxCell id="uYMQuJ2MwAVhW0nK6_kP-7" style="edgeStyle=orthogonalEdgeStyle;rounded=0;orthogonalLoop=1;jettySize=auto;html=1;entryX=0;entryY=0.5;entryDx=0;entryDy=0;exitX=0.5;exitY=1;exitDx=0;exitDy=0;strokeWidth=3;" edge="1" parent="1" source="uYMQuJ2MwAVhW0nK6_kP-1" target="uYMQuJ2MwAVhW0nK6_kP-14">
          <mxGeometry relative="1" as="geometry" />
        </mxCell>
        <mxCell id="uYMQuJ2MwAVhW0nK6_kP-21" value="&lt;div&gt;class&lt;/div&gt;&lt;div&gt;&lt;b&gt;_QuizPageState( )&lt;/b&gt;&lt;br&gt;&lt;/div&gt;" style="rounded=1;whiteSpace=wrap;html=1;fillColor=#ffff88;strokeColor=#36393d;" vertex="1" parent="1">
          <mxGeometry x="160" y="490" width="120" height="40" as="geometry" />
        </mxCell>
        <mxCell id="uYMQuJ2MwAVhW0nK6_kP-25" value="" style="group;fillColor=#eeeeee;strokeColor=#36393d;container=0;" vertex="1" connectable="0" parent="1">
          <mxGeometry x="320" y="280" width="330" height="100" as="geometry" />
        </mxCell>
        <mxCell id="uYMQuJ2MwAVhW0nK6_kP-24" style="edgeStyle=orthogonalEdgeStyle;rounded=0;orthogonalLoop=1;jettySize=auto;html=1;entryX=0.5;entryY=0;entryDx=0;entryDy=0;exitX=0.5;exitY=1;exitDx=0;exitDy=0;strokeWidth=3;" edge="1" parent="1" source="uYMQuJ2MwAVhW0nK6_kP-13" target="uYMQuJ2MwAVhW0nK6_kP-22">
          <mxGeometry relative="1" as="geometry" />
        </mxCell>
        <mxCell id="uYMQuJ2MwAVhW0nK6_kP-77" value="" style="group" vertex="1" connectable="0" parent="1">
          <mxGeometry x="320" y="-170" width="300" height="40" as="geometry" />
        </mxCell>
        <mxCell id="uYMQuJ2MwAVhW0nK6_kP-78" value="&lt;font style=&quot;font-size: 16px&quot;&gt;QuizBrain quizBrain = QuizBrain( )&lt;/font&gt;" style="whiteSpace=wrap;html=1;labelBackgroundColor=#E6D0DE;align=left;verticalAlign=top;fillColor=#eeeeee;strokeColor=#36393d;" vertex="1" parent="uYMQuJ2MwAVhW0nK6_kP-77">
          <mxGeometry width="300" height="40" as="geometry" />
        </mxCell>
        <mxCell id="uYMQuJ2MwAVhW0nK6_kP-80" style="edgeStyle=orthogonalEdgeStyle;rounded=0;orthogonalLoop=1;jettySize=auto;html=1;entryX=0.5;entryY=0;entryDx=0;entryDy=0;strokeWidth=3;" edge="1" parent="1" source="uYMQuJ2MwAVhW0nK6_kP-22" target="uYMQuJ2MwAVhW0nK6_kP-21">
          <mxGeometry relative="1" as="geometry" />
        </mxCell>
        <mxCell id="uYMQuJ2MwAVhW0nK6_kP-81" style="edgeStyle=orthogonalEdgeStyle;rounded=0;orthogonalLoop=1;jettySize=auto;html=1;entryX=0;entryY=0.25;entryDx=0;entryDy=0;exitX=0.5;exitY=1;exitDx=0;exitDy=0;strokeWidth=3;" edge="1" parent="1" source="uYMQuJ2MwAVhW0nK6_kP-21" target="uYMQuJ2MwAVhW0nK6_kP-27">
          <mxGeometry relative="1" as="geometry" />
        </mxCell>
        <mxCell id="uYMQuJ2MwAVhW0nK6_kP-22" value="&lt;font style=&quot;font-size: 16px&quot;&gt;class &lt;b&gt;QuizPage&lt;/b&gt; extends &lt;b&gt;StatefulWidget&lt;/b&gt;&lt;/font&gt;" style="whiteSpace=wrap;html=1;labelBackgroundColor=#E6D0DE;align=left;verticalAlign=top;fillColor=#eeeeee;strokeColor=#36393d;" vertex="1" parent="1">
          <mxGeometry x="320" y="280" width="330" height="100" as="geometry" />
        </mxCell>
        <mxCell id="uYMQuJ2MwAVhW0nK6_kP-17" value="_QuizPageState createState( ) =&amp;gt; _QuizPageState( )" style="rounded=1;whiteSpace=wrap;html=1;fillColor=#d5e8d4;strokeColor=#82b366;" vertex="1" parent="1">
          <mxGeometry x="348.6" y="317.5" width="198.00000000000003" height="50" as="geometry" />
        </mxCell>
        <mxCell id="uYMQuJ2MwAVhW0nK6_kP-126" value="" style="group" vertex="1" connectable="0" parent="1">
          <mxGeometry x="1650" y="310" width="300" height="370" as="geometry" />
        </mxCell>
        <mxCell id="uYMQuJ2MwAVhW0nK6_kP-124" value="&lt;b&gt;&lt;font style=&quot;font-size: 25px&quot;&gt;question.dart&lt;/font&gt;&lt;/b&gt;" style="whiteSpace=wrap;html=1;labelBackgroundColor=#E6D0DE;align=left;verticalAlign=top;fillColor=#cce5ff;strokeColor=#36393d;" vertex="1" parent="uYMQuJ2MwAVhW0nK6_kP-126">
          <mxGeometry width="300" height="370" as="geometry" />
        </mxCell>
        <mxCell id="uYMQuJ2MwAVhW0nK6_kP-130" value="" style="group" vertex="1" connectable="0" parent="uYMQuJ2MwAVhW0nK6_kP-126">
          <mxGeometry x="10" y="90" width="270" height="270" as="geometry" />
        </mxCell>
        <mxCell id="uYMQuJ2MwAVhW0nK6_kP-118" value="&lt;div style=&quot;font-size: 16px&quot;&gt;&lt;font style=&quot;font-size: 16px&quot;&gt;question.dart&lt;/font&gt;&lt;/div&gt;&lt;div style=&quot;font-size: 16px&quot;&gt;&lt;font style=&quot;font-size: 16px&quot;&gt;&amp;nbsp;- class &lt;b&gt;Question&lt;/b&gt; ....&lt;/font&gt;&lt;/div&gt;" style="whiteSpace=wrap;html=1;labelBackgroundColor=#E6D0DE;align=left;verticalAlign=top;" vertex="1" parent="uYMQuJ2MwAVhW0nK6_kP-130">
          <mxGeometry width="270" height="270" as="geometry" />
        </mxCell>
        <mxCell id="uYMQuJ2MwAVhW0nK6_kP-119" value="&lt;div&gt;String &lt;b&gt;nextQuestion&lt;/b&gt;&lt;/div&gt;" style="rounded=1;whiteSpace=wrap;html=1;labelBackgroundColor=none;align=left;fillColor=#76608a;strokeColor=#432D57;fontColor=#ffffff;" vertex="1" parent="uYMQuJ2MwAVhW0nK6_kP-130">
          <mxGeometry x="50" y="70" width="160" height="40" as="geometry" />
        </mxCell>
        <mxCell id="uYMQuJ2MwAVhW0nK6_kP-120" value="&lt;div&gt;bool &lt;b&gt;questionAnswer&lt;/b&gt;&lt;/div&gt;" style="rounded=1;whiteSpace=wrap;html=1;labelBackgroundColor=none;align=left;fillColor=#76608a;strokeColor=#432D57;fontColor=#ffffff;" vertex="1" parent="uYMQuJ2MwAVhW0nK6_kP-130">
          <mxGeometry x="50" y="110" width="160" height="40" as="geometry" />
        </mxCell>
        <mxCell id="uYMQuJ2MwAVhW0nK6_kP-121" value="&lt;div&gt;Question(String q, bool a) {&lt;/div&gt;&lt;blockquote&gt;&lt;div&gt;questionText = q;&lt;/div&gt;&lt;div&gt;questionAnswer = a;&lt;/div&gt;&lt;div&gt;}&lt;br&gt;&lt;/div&gt;&lt;/blockquote&gt;" style="rounded=1;whiteSpace=wrap;html=1;labelBackgroundColor=none;align=left;fillColor=#76608a;strokeColor=#432D57;fontColor=#ffffff;verticalAlign=top;" vertex="1" parent="uYMQuJ2MwAVhW0nK6_kP-130">
          <mxGeometry x="50" y="170" width="200" height="80" as="geometry" />
        </mxCell>
        <mxCell id="uYMQuJ2MwAVhW0nK6_kP-123" value="&lt;b&gt;&lt;font style=&quot;font-size: 25px&quot;&gt;quiz_brain.dart&lt;/font&gt;&lt;/b&gt;" style="whiteSpace=wrap;html=1;labelBackgroundColor=#E6D0DE;align=left;verticalAlign=top;fillColor=#cce5ff;strokeColor=#36393d;" vertex="1" parent="1">
          <mxGeometry x="1660" y="900" width="560" height="620" as="geometry" />
        </mxCell>
        <mxCell id="uYMQuJ2MwAVhW0nK6_kP-128" value="" style="group" vertex="1" connectable="0" parent="1">
          <mxGeometry x="320" y="490" width="980" height="1420" as="geometry" />
        </mxCell>
        <mxCell id="uYMQuJ2MwAVhW0nK6_kP-27" value="&lt;font style=&quot;font-size: 16px&quot;&gt;class _&lt;b&gt;QuizPageState&lt;/b&gt; extends &lt;b&gt;State&amp;lt;QuizPage&amp;gt;&lt;/b&gt;&lt;/font&gt;" style="whiteSpace=wrap;html=1;labelBackgroundColor=#E6D0DE;align=left;verticalAlign=top;" vertex="1" parent="uYMQuJ2MwAVhW0nK6_kP-128">
          <mxGeometry width="980" height="1420" as="geometry" />
        </mxCell>
        <mxCell id="uYMQuJ2MwAVhW0nK6_kP-18" value="List&amp;lt;Icon&amp;gt; scoreKeeper = [ ]" style="rounded=1;whiteSpace=wrap;html=1;labelBackgroundColor=none;align=left;" vertex="1" parent="uYMQuJ2MwAVhW0nK6_kP-128">
          <mxGeometry x="6" y="40" width="160" height="30" as="geometry" />
        </mxCell>
        <mxCell id="uYMQuJ2MwAVhW0nK6_kP-19" value="void &lt;b&gt;checkAnswer&lt;/b&gt; " style="rounded=1;whiteSpace=wrap;html=1;labelBackgroundColor=none;align=left;fillColor=#76608a;strokeColor=#432D57;fontColor=#ffffff;" vertex="1" parent="uYMQuJ2MwAVhW0nK6_kP-128">
          <mxGeometry x="114" y="80" width="160" height="50" as="geometry" />
        </mxCell>
        <mxCell id="uYMQuJ2MwAVhW0nK6_kP-154" style="edgeStyle=orthogonalEdgeStyle;rounded=0;orthogonalLoop=1;jettySize=auto;html=1;startArrow=classic;startFill=1;strokeWidth=6;entryX=0;entryY=0.5;entryDx=0;entryDy=0;strokeColor=#FF0000;" edge="1" parent="uYMQuJ2MwAVhW0nK6_kP-128" source="uYMQuJ2MwAVhW0nK6_kP-18" target="uYMQuJ2MwAVhW0nK6_kP-76">
          <mxGeometry relative="1" as="geometry">
            <mxPoint x="114" y="130" as="sourcePoint" />
            <Array as="points">
              <mxPoint x="106" y="1385" />
            </Array>
          </mxGeometry>
        </mxCell>
        <mxCell id="uYMQuJ2MwAVhW0nK6_kP-29" value="&lt;div&gt;return&lt;/div&gt;&lt;div&gt;&lt;b&gt;Column&lt;/b&gt;&lt;/div&gt;&lt;div&gt;&lt;b&gt;(children... )&lt;/b&gt;&lt;br&gt;&lt;/div&gt;" style="rounded=1;whiteSpace=wrap;html=1;fillColor=#ffff88;strokeColor=#36393d;" vertex="1" parent="uYMQuJ2MwAVhW0nK6_kP-128">
          <mxGeometry x="114" y="140" width="120" height="50" as="geometry" />
        </mxCell>
        <mxCell id="uYMQuJ2MwAVhW0nK6_kP-30" value="&lt;div&gt;mainAxisAlignment:&lt;b&gt; MainAxisAlignment...&lt;/b&gt;&lt;/div&gt;" style="rounded=1;whiteSpace=wrap;html=1;align=left;verticalAlign=middle;fillColor=#f8cecc;strokeColor=#b85450;" vertex="1" parent="uYMQuJ2MwAVhW0nK6_kP-128">
          <mxGeometry x="220" y="180" width="250" height="30" as="geometry" />
        </mxCell>
        <mxCell id="uYMQuJ2MwAVhW0nK6_kP-31" value="&lt;div&gt;crossAxisAlignment:&lt;b&gt; CrossAxisAlignment...&lt;/b&gt;&lt;/div&gt;" style="rounded=1;whiteSpace=wrap;html=1;align=left;verticalAlign=middle;fillColor=#f8cecc;strokeColor=#b85450;" vertex="1" parent="uYMQuJ2MwAVhW0nK6_kP-128">
          <mxGeometry x="220" y="210" width="250" height="30" as="geometry" />
        </mxCell>
        <mxCell id="uYMQuJ2MwAVhW0nK6_kP-32" value="&lt;div&gt;&lt;b&gt;Expanded( )&lt;/b&gt;&lt;br&gt;&lt;/div&gt;" style="rounded=1;whiteSpace=wrap;html=1;" vertex="1" parent="uYMQuJ2MwAVhW0nK6_kP-128">
          <mxGeometry x="220" y="280" width="120" height="40" as="geometry" />
        </mxCell>
        <mxCell id="uYMQuJ2MwAVhW0nK6_kP-37" style="edgeStyle=orthogonalEdgeStyle;rounded=0;orthogonalLoop=1;jettySize=auto;html=1;entryX=0;entryY=0.5;entryDx=0;entryDy=0;strokeWidth=3;" edge="1" parent="uYMQuJ2MwAVhW0nK6_kP-128" source="uYMQuJ2MwAVhW0nK6_kP-29" target="uYMQuJ2MwAVhW0nK6_kP-32">
          <mxGeometry as="geometry" />
        </mxCell>
        <mxCell id="uYMQuJ2MwAVhW0nK6_kP-33" value="&lt;div&gt;flex:&lt;b&gt;&lt;br&gt;&lt;/b&gt;&lt;/div&gt;" style="rounded=1;whiteSpace=wrap;html=1;align=left;verticalAlign=middle;fillColor=#f8cecc;strokeColor=#b85450;" vertex="1" parent="uYMQuJ2MwAVhW0nK6_kP-128">
          <mxGeometry x="320" y="310" width="60" height="20" as="geometry" />
        </mxCell>
        <mxCell id="uYMQuJ2MwAVhW0nK6_kP-35" value="&lt;div&gt;child&lt;/div&gt;&lt;div&gt;&lt;b&gt;Padding( )&lt;/b&gt;&lt;br&gt;&lt;/div&gt;" style="rounded=1;whiteSpace=wrap;html=1;" vertex="1" parent="uYMQuJ2MwAVhW0nK6_kP-128">
          <mxGeometry x="320" y="340" width="120" height="40" as="geometry" />
        </mxCell>
        <mxCell id="uYMQuJ2MwAVhW0nK6_kP-38" style="edgeStyle=orthogonalEdgeStyle;rounded=0;orthogonalLoop=1;jettySize=auto;html=1;entryX=0;entryY=0.5;entryDx=0;entryDy=0;strokeWidth=3;" edge="1" parent="uYMQuJ2MwAVhW0nK6_kP-128" source="uYMQuJ2MwAVhW0nK6_kP-32" target="uYMQuJ2MwAVhW0nK6_kP-35">
          <mxGeometry as="geometry" />
        </mxCell>
        <mxCell id="uYMQuJ2MwAVhW0nK6_kP-36" value="&lt;div&gt;child&lt;/div&gt;&lt;div&gt;&lt;b&gt;Center( )&lt;/b&gt;&lt;br&gt;&lt;/div&gt;" style="rounded=1;whiteSpace=wrap;html=1;" vertex="1" parent="uYMQuJ2MwAVhW0nK6_kP-128">
          <mxGeometry x="400" y="410" width="120" height="40" as="geometry" />
        </mxCell>
        <mxCell id="uYMQuJ2MwAVhW0nK6_kP-40" style="edgeStyle=orthogonalEdgeStyle;rounded=0;orthogonalLoop=1;jettySize=auto;html=1;entryX=0;entryY=0.5;entryDx=0;entryDy=0;strokeWidth=3;" edge="1" parent="uYMQuJ2MwAVhW0nK6_kP-128" source="uYMQuJ2MwAVhW0nK6_kP-35" target="uYMQuJ2MwAVhW0nK6_kP-36">
          <mxGeometry as="geometry" />
        </mxCell>
        <mxCell id="uYMQuJ2MwAVhW0nK6_kP-39" value="&lt;div&gt;padding:&lt;b&gt; EdgeInsets...&lt;/b&gt;&lt;br&gt;&lt;/div&gt;" style="rounded=1;whiteSpace=wrap;html=1;align=left;verticalAlign=middle;fillColor=#f8cecc;strokeColor=#b85450;" vertex="1" parent="uYMQuJ2MwAVhW0nK6_kP-128">
          <mxGeometry x="420" y="370" width="170" height="30" as="geometry" />
        </mxCell>
        <mxCell id="uYMQuJ2MwAVhW0nK6_kP-41" value="&lt;div&gt;child&lt;/div&gt;&lt;div&gt;&lt;b&gt;Text( )&lt;/b&gt;&lt;br&gt;&lt;/div&gt;" style="rounded=1;whiteSpace=wrap;html=1;" vertex="1" parent="uYMQuJ2MwAVhW0nK6_kP-128">
          <mxGeometry x="500" y="470" width="120" height="40" as="geometry" />
        </mxCell>
        <mxCell id="uYMQuJ2MwAVhW0nK6_kP-43" style="edgeStyle=orthogonalEdgeStyle;rounded=0;orthogonalLoop=1;jettySize=auto;html=1;entryX=0;entryY=0.5;entryDx=0;entryDy=0;strokeWidth=3;" edge="1" parent="uYMQuJ2MwAVhW0nK6_kP-128" source="uYMQuJ2MwAVhW0nK6_kP-36" target="uYMQuJ2MwAVhW0nK6_kP-41">
          <mxGeometry as="geometry" />
        </mxCell>
        <mxCell id="uYMQuJ2MwAVhW0nK6_kP-42" value="&lt;div&gt;&lt;b&gt;quizBrain.getQuestionText( )&lt;/b&gt;&lt;br&gt;&lt;/div&gt;" style="rounded=1;whiteSpace=wrap;html=1;align=left;verticalAlign=middle;fillColor=#76608a;strokeColor=#432D57;fontColor=#ffffff;" vertex="1" parent="uYMQuJ2MwAVhW0nK6_kP-128">
          <mxGeometry x="600" y="500" width="190" height="30" as="geometry" />
        </mxCell>
        <mxCell id="uYMQuJ2MwAVhW0nK6_kP-44" value="&lt;div&gt;textAlign:&lt;b&gt; TextAlign&lt;/b&gt;&lt;br&gt;&lt;/div&gt;" style="rounded=1;whiteSpace=wrap;html=1;align=left;verticalAlign=middle;fillColor=#f8cecc;strokeColor=#b85450;" vertex="1" parent="uYMQuJ2MwAVhW0nK6_kP-128">
          <mxGeometry x="600" y="530" width="190" height="30" as="geometry" />
        </mxCell>
        <mxCell id="uYMQuJ2MwAVhW0nK6_kP-45" value="&lt;div&gt;style:&lt;b&gt; TextStyle&lt;/b&gt;&lt;br&gt;&lt;/div&gt;&lt;div&gt;- fontSize....&lt;/div&gt;&lt;div&gt;- color....&lt;br&gt;&lt;/div&gt;" style="rounded=1;whiteSpace=wrap;html=1;align=left;verticalAlign=top;fillColor=#f8cecc;strokeColor=#b85450;" vertex="1" parent="uYMQuJ2MwAVhW0nK6_kP-128">
          <mxGeometry x="600" y="560" width="190" height="50" as="geometry" />
        </mxCell>
        <mxCell id="uYMQuJ2MwAVhW0nK6_kP-47" value="&lt;div&gt;&lt;b&gt;Expanded( )&lt;/b&gt;&lt;br&gt;&lt;/div&gt;" style="rounded=1;whiteSpace=wrap;html=1;" vertex="1" parent="uYMQuJ2MwAVhW0nK6_kP-128">
          <mxGeometry x="220" y="600" width="120" height="40" as="geometry" />
        </mxCell>
        <mxCell id="uYMQuJ2MwAVhW0nK6_kP-48" style="edgeStyle=orthogonalEdgeStyle;rounded=0;orthogonalLoop=1;jettySize=auto;html=1;entryX=0;entryY=0.5;entryDx=0;entryDy=0;strokeWidth=3;" edge="1" parent="uYMQuJ2MwAVhW0nK6_kP-128" source="uYMQuJ2MwAVhW0nK6_kP-29" target="uYMQuJ2MwAVhW0nK6_kP-47">
          <mxGeometry as="geometry" />
        </mxCell>
        <mxCell id="uYMQuJ2MwAVhW0nK6_kP-49" value="&lt;div&gt;child&lt;/div&gt;&lt;div&gt;&lt;b&gt;Padding( )&lt;/b&gt;&lt;br&gt;&lt;/div&gt;" style="rounded=1;whiteSpace=wrap;html=1;fillColor=#60a917;strokeColor=#2D7600;fontColor=#ffffff;" vertex="1" parent="uYMQuJ2MwAVhW0nK6_kP-128">
          <mxGeometry x="320" y="660" width="120" height="40" as="geometry" />
        </mxCell>
        <mxCell id="uYMQuJ2MwAVhW0nK6_kP-53" style="edgeStyle=orthogonalEdgeStyle;rounded=0;orthogonalLoop=1;jettySize=auto;html=1;entryX=0;entryY=0.5;entryDx=0;entryDy=0;strokeWidth=3;" edge="1" parent="uYMQuJ2MwAVhW0nK6_kP-128" source="uYMQuJ2MwAVhW0nK6_kP-47" target="uYMQuJ2MwAVhW0nK6_kP-49">
          <mxGeometry as="geometry" />
        </mxCell>
        <mxCell id="uYMQuJ2MwAVhW0nK6_kP-50" value="&lt;div&gt;child&lt;/div&gt;&lt;div&gt;&lt;b&gt;TextButton( )&lt;/b&gt;&lt;br&gt;&lt;/div&gt;" style="rounded=1;whiteSpace=wrap;html=1;" vertex="1" parent="uYMQuJ2MwAVhW0nK6_kP-128">
          <mxGeometry x="400" y="740" width="120" height="40" as="geometry" />
        </mxCell>
        <mxCell id="uYMQuJ2MwAVhW0nK6_kP-52" style="edgeStyle=orthogonalEdgeStyle;rounded=0;orthogonalLoop=1;jettySize=auto;html=1;entryX=0;entryY=0.5;entryDx=0;entryDy=0;strokeWidth=3;" edge="1" parent="uYMQuJ2MwAVhW0nK6_kP-128" source="uYMQuJ2MwAVhW0nK6_kP-49" target="uYMQuJ2MwAVhW0nK6_kP-50">
          <mxGeometry as="geometry" />
        </mxCell>
        <mxCell id="uYMQuJ2MwAVhW0nK6_kP-51" value="&lt;div&gt;padding:&lt;b&gt; EdgeInsets...&lt;/b&gt;&lt;br&gt;&lt;/div&gt;" style="rounded=1;whiteSpace=wrap;html=1;align=left;verticalAlign=middle;fillColor=#f8cecc;strokeColor=#b85450;" vertex="1" parent="uYMQuJ2MwAVhW0nK6_kP-128">
          <mxGeometry x="420" y="690" width="170" height="30" as="geometry" />
        </mxCell>
        <mxCell id="uYMQuJ2MwAVhW0nK6_kP-54" value="&lt;div&gt;style:&lt;b&gt; TextButton.styleFrom&lt;/b&gt;&lt;/div&gt;&lt;div&gt;- backgrondColor....&lt;br&gt;&lt;/div&gt;" style="rounded=1;whiteSpace=wrap;html=1;align=left;verticalAlign=middle;fillColor=#f8cecc;strokeColor=#b85450;" vertex="1" parent="uYMQuJ2MwAVhW0nK6_kP-128">
          <mxGeometry x="500" y="770" width="190" height="30" as="geometry" />
        </mxCell>
        <mxCell id="uYMQuJ2MwAVhW0nK6_kP-59" style="edgeStyle=orthogonalEdgeStyle;rounded=0;orthogonalLoop=1;jettySize=auto;html=1;entryX=0;entryY=0.5;entryDx=0;entryDy=0;exitX=0.5;exitY=1;exitDx=0;exitDy=0;strokeWidth=3;" edge="1" parent="uYMQuJ2MwAVhW0nK6_kP-128" source="uYMQuJ2MwAVhW0nK6_kP-50" target="uYMQuJ2MwAVhW0nK6_kP-58">
          <mxGeometry as="geometry" />
        </mxCell>
        <mxCell id="uYMQuJ2MwAVhW0nK6_kP-55" value="&lt;div&gt;child&lt;/div&gt;&lt;div&gt;&lt;b&gt;Text( &#39;True&#39; )&lt;/b&gt;&lt;br&gt;&lt;/div&gt;" style="rounded=1;whiteSpace=wrap;html=1;" vertex="1" parent="uYMQuJ2MwAVhW0nK6_kP-128">
          <mxGeometry x="500" y="820" width="120" height="40" as="geometry" />
        </mxCell>
        <mxCell id="uYMQuJ2MwAVhW0nK6_kP-57" style="edgeStyle=orthogonalEdgeStyle;rounded=0;orthogonalLoop=1;jettySize=auto;html=1;exitX=0.5;exitY=1;exitDx=0;exitDy=0;entryX=0;entryY=0.5;entryDx=0;entryDy=0;strokeWidth=3;" edge="1" parent="uYMQuJ2MwAVhW0nK6_kP-128" source="uYMQuJ2MwAVhW0nK6_kP-50" target="uYMQuJ2MwAVhW0nK6_kP-55">
          <mxGeometry as="geometry" />
        </mxCell>
        <mxCell id="uYMQuJ2MwAVhW0nK6_kP-58" value="&lt;div&gt;onPressed&lt;/div&gt;&lt;div&gt;&lt;b&gt;checkAnswer(true)&lt;/b&gt;&lt;br&gt;&lt;/div&gt;" style="rounded=1;whiteSpace=wrap;html=1;fillColor=#1ba1e2;strokeColor=#006EAF;fontColor=#ffffff;" vertex="1" parent="uYMQuJ2MwAVhW0nK6_kP-128">
          <mxGeometry x="500" y="910" width="120" height="40" as="geometry" />
        </mxCell>
        <mxCell id="uYMQuJ2MwAVhW0nK6_kP-60" value="&lt;div&gt;&lt;div&gt;child&lt;b&gt;: TextStyle( )&lt;/b&gt;&lt;/div&gt;&lt;/div&gt;&lt;div&gt;- color:&lt;b&gt; Colors...&lt;br&gt;&lt;/b&gt;&lt;/div&gt;&lt;div&gt;- backgrondColor....&lt;br&gt;&lt;/div&gt;" style="rounded=1;whiteSpace=wrap;html=1;align=left;verticalAlign=middle;fillColor=#f8cecc;strokeColor=#b85450;" vertex="1" parent="uYMQuJ2MwAVhW0nK6_kP-128">
          <mxGeometry x="600" y="850" width="190" height="50" as="geometry" />
        </mxCell>
        <mxCell id="uYMQuJ2MwAVhW0nK6_kP-62" value="&lt;div&gt;&lt;b&gt;Expanded( )&lt;/b&gt;&lt;br&gt;&lt;/div&gt;" style="rounded=1;whiteSpace=wrap;html=1;" vertex="1" parent="uYMQuJ2MwAVhW0nK6_kP-128">
          <mxGeometry x="220" y="950" width="120" height="40" as="geometry" />
        </mxCell>
        <mxCell id="uYMQuJ2MwAVhW0nK6_kP-73" style="edgeStyle=orthogonalEdgeStyle;rounded=0;orthogonalLoop=1;jettySize=auto;html=1;entryX=0;entryY=0.5;entryDx=0;entryDy=0;strokeWidth=3;" edge="1" parent="uYMQuJ2MwAVhW0nK6_kP-128" source="uYMQuJ2MwAVhW0nK6_kP-29" target="uYMQuJ2MwAVhW0nK6_kP-62">
          <mxGeometry as="geometry" />
        </mxCell>
        <mxCell id="uYMQuJ2MwAVhW0nK6_kP-64" value="&lt;div&gt;child&lt;/div&gt;&lt;div&gt;&lt;b&gt;Padding( )&lt;/b&gt;&lt;br&gt;&lt;/div&gt;" style="rounded=1;whiteSpace=wrap;html=1;fillColor=#d80073;strokeColor=#A50040;fontColor=#ffffff;" vertex="1" parent="uYMQuJ2MwAVhW0nK6_kP-128">
          <mxGeometry x="320" y="1010" width="120" height="40" as="geometry" />
        </mxCell>
        <mxCell id="uYMQuJ2MwAVhW0nK6_kP-61" style="edgeStyle=orthogonalEdgeStyle;rounded=0;orthogonalLoop=1;jettySize=auto;html=1;entryX=0;entryY=0.5;entryDx=0;entryDy=0;strokeWidth=3;" edge="1" parent="uYMQuJ2MwAVhW0nK6_kP-128" source="uYMQuJ2MwAVhW0nK6_kP-62" target="uYMQuJ2MwAVhW0nK6_kP-64">
          <mxGeometry as="geometry" />
        </mxCell>
        <mxCell id="uYMQuJ2MwAVhW0nK6_kP-66" value="&lt;div&gt;child&lt;/div&gt;&lt;div&gt;&lt;b&gt;TextButton( )&lt;/b&gt;&lt;br&gt;&lt;/div&gt;" style="rounded=1;whiteSpace=wrap;html=1;" vertex="1" parent="uYMQuJ2MwAVhW0nK6_kP-128">
          <mxGeometry x="400" y="1090" width="120" height="40" as="geometry" />
        </mxCell>
        <mxCell id="uYMQuJ2MwAVhW0nK6_kP-63" style="edgeStyle=orthogonalEdgeStyle;rounded=0;orthogonalLoop=1;jettySize=auto;html=1;entryX=0;entryY=0.5;entryDx=0;entryDy=0;strokeWidth=3;" edge="1" parent="uYMQuJ2MwAVhW0nK6_kP-128" source="uYMQuJ2MwAVhW0nK6_kP-64" target="uYMQuJ2MwAVhW0nK6_kP-66">
          <mxGeometry as="geometry" />
        </mxCell>
        <mxCell id="uYMQuJ2MwAVhW0nK6_kP-67" value="&lt;div&gt;padding:&lt;b&gt; EdgeInsets...&lt;/b&gt;&lt;br&gt;&lt;/div&gt;" style="rounded=1;whiteSpace=wrap;html=1;align=left;verticalAlign=middle;fillColor=#f8cecc;strokeColor=#b85450;" vertex="1" parent="uYMQuJ2MwAVhW0nK6_kP-128">
          <mxGeometry x="420" y="1040" width="170" height="30" as="geometry" />
        </mxCell>
        <mxCell id="uYMQuJ2MwAVhW0nK6_kP-68" value="&lt;div&gt;style:&lt;b&gt; TextButton.styleFrom&lt;/b&gt;&lt;/div&gt;&lt;div&gt;- backgrondColor....&lt;br&gt;&lt;/div&gt;" style="rounded=1;whiteSpace=wrap;html=1;align=left;verticalAlign=middle;fillColor=#f8cecc;strokeColor=#b85450;" vertex="1" parent="uYMQuJ2MwAVhW0nK6_kP-128">
          <mxGeometry x="500" y="1120" width="190" height="30" as="geometry" />
        </mxCell>
        <mxCell id="uYMQuJ2MwAVhW0nK6_kP-69" style="edgeStyle=orthogonalEdgeStyle;rounded=0;orthogonalLoop=1;jettySize=auto;html=1;entryX=0;entryY=0.5;entryDx=0;entryDy=0;exitX=0.5;exitY=1;exitDx=0;exitDy=0;strokeWidth=3;" edge="1" parent="uYMQuJ2MwAVhW0nK6_kP-128" source="uYMQuJ2MwAVhW0nK6_kP-66" target="uYMQuJ2MwAVhW0nK6_kP-71">
          <mxGeometry as="geometry" />
        </mxCell>
        <mxCell id="uYMQuJ2MwAVhW0nK6_kP-70" value="&lt;div&gt;child&lt;/div&gt;&lt;div&gt;&lt;b&gt;Text( &#39;False&#39; )&lt;/b&gt;&lt;br&gt;&lt;/div&gt;" style="rounded=1;whiteSpace=wrap;html=1;" vertex="1" parent="uYMQuJ2MwAVhW0nK6_kP-128">
          <mxGeometry x="500" y="1170" width="120" height="40" as="geometry" />
        </mxCell>
        <mxCell id="uYMQuJ2MwAVhW0nK6_kP-65" style="edgeStyle=orthogonalEdgeStyle;rounded=0;orthogonalLoop=1;jettySize=auto;html=1;exitX=0.5;exitY=1;exitDx=0;exitDy=0;entryX=0;entryY=0.5;entryDx=0;entryDy=0;strokeWidth=3;" edge="1" parent="uYMQuJ2MwAVhW0nK6_kP-128" source="uYMQuJ2MwAVhW0nK6_kP-66" target="uYMQuJ2MwAVhW0nK6_kP-70">
          <mxGeometry as="geometry" />
        </mxCell>
        <mxCell id="uYMQuJ2MwAVhW0nK6_kP-71" value="&lt;div&gt;onPressed&lt;/div&gt;&lt;div&gt;&lt;b&gt;checkAnswer(false)&lt;/b&gt;&lt;br&gt;&lt;/div&gt;" style="rounded=1;whiteSpace=wrap;html=1;fillColor=#1ba1e2;strokeColor=#006EAF;fontColor=#ffffff;" vertex="1" parent="uYMQuJ2MwAVhW0nK6_kP-128">
          <mxGeometry x="500" y="1260" width="120" height="40" as="geometry" />
        </mxCell>
        <mxCell id="uYMQuJ2MwAVhW0nK6_kP-72" value="&lt;div&gt;&lt;div&gt;child&lt;b&gt;: TextStyle( )&lt;/b&gt;&lt;/div&gt;&lt;/div&gt;&lt;div&gt;- color:&lt;b&gt; Colors...&lt;br&gt;&lt;/b&gt;&lt;/div&gt;&lt;div&gt;- backgrondColor....&lt;br&gt;&lt;/div&gt;" style="rounded=1;whiteSpace=wrap;html=1;align=left;verticalAlign=middle;fillColor=#f8cecc;strokeColor=#b85450;" vertex="1" parent="uYMQuJ2MwAVhW0nK6_kP-128">
          <mxGeometry x="600" y="1200" width="190" height="50" as="geometry" />
        </mxCell>
        <mxCell id="uYMQuJ2MwAVhW0nK6_kP-74" value="&lt;div&gt;&lt;b&gt;Row( )&lt;/b&gt;&lt;br&gt;&lt;/div&gt;" style="rounded=1;whiteSpace=wrap;html=1;" vertex="1" parent="uYMQuJ2MwAVhW0nK6_kP-128">
          <mxGeometry x="220" y="1330" width="120" height="40" as="geometry" />
        </mxCell>
        <mxCell id="uYMQuJ2MwAVhW0nK6_kP-75" style="edgeStyle=orthogonalEdgeStyle;rounded=0;orthogonalLoop=1;jettySize=auto;html=1;entryX=0;entryY=0.5;entryDx=0;entryDy=0;strokeWidth=3;" edge="1" parent="uYMQuJ2MwAVhW0nK6_kP-128" source="uYMQuJ2MwAVhW0nK6_kP-29" target="uYMQuJ2MwAVhW0nK6_kP-74">
          <mxGeometry as="geometry" />
        </mxCell>
        <mxCell id="uYMQuJ2MwAVhW0nK6_kP-76" value="children: &lt;b&gt;scoreKeeper&lt;/b&gt;" style="rounded=1;whiteSpace=wrap;html=1;align=left;verticalAlign=middle;fillColor=#76608a;strokeColor=#432D57;fontColor=#ffffff;" vertex="1" parent="uYMQuJ2MwAVhW0nK6_kP-128">
          <mxGeometry x="310" y="1370" width="140" height="30" as="geometry" />
        </mxCell>
        <mxCell id="uYMQuJ2MwAVhW0nK6_kP-155" value="" style="group" vertex="1" connectable="0" parent="uYMQuJ2MwAVhW0nK6_kP-128">
          <mxGeometry x="670" y="30" width="270" height="380" as="geometry" />
        </mxCell>
        <mxCell id="uYMQuJ2MwAVhW0nK6_kP-156" value="&lt;font style=&quot;font-size: 15px&quot;&gt;setState&lt;/font&gt;" style="whiteSpace=wrap;html=1;labelBackgroundColor=#E6D0DE;align=left;verticalAlign=top;" vertex="1" parent="uYMQuJ2MwAVhW0nK6_kP-155">
          <mxGeometry width="270" height="380" as="geometry" />
        </mxCell>
        <mxCell id="uYMQuJ2MwAVhW0nK6_kP-157" value="if (quizBrain.isFinished ..." style="rounded=1;whiteSpace=wrap;html=1;labelBackgroundColor=none;align=left;fillColor=#dae8fc;strokeColor=#6c8ebf;" vertex="1" parent="uYMQuJ2MwAVhW0nK6_kP-155">
          <mxGeometry x="10" y="40" width="160" height="20" as="geometry" />
        </mxCell>
        <mxCell id="uYMQuJ2MwAVhW0nK6_kP-158" value="Alert" style="rounded=1;whiteSpace=wrap;html=1;labelBackgroundColor=none;align=left;fillColor=#76608a;strokeColor=#432D57;fontColor=#ffffff;" vertex="1" parent="uYMQuJ2MwAVhW0nK6_kP-155">
          <mxGeometry x="30" y="60" width="160" height="40" as="geometry" />
        </mxCell>
        <mxCell id="uYMQuJ2MwAVhW0nK6_kP-160" value="buttons: DialogButton" style="rounded=1;whiteSpace=wrap;html=1;labelBackgroundColor=none;align=left;fillColor=#dae8fc;strokeColor=#6c8ebf;" vertex="1" parent="uYMQuJ2MwAVhW0nK6_kP-155">
          <mxGeometry x="44" y="100" width="160" height="20" as="geometry" />
        </mxCell>
        <mxCell id="uYMQuJ2MwAVhW0nK6_kP-168" value="onPressed: Navigator.pop" style="rounded=1;whiteSpace=wrap;html=1;labelBackgroundColor=none;align=left;fillColor=#dae8fc;strokeColor=#6c8ebf;" vertex="1" parent="uYMQuJ2MwAVhW0nK6_kP-155">
          <mxGeometry x="44" y="120" width="160" height="20" as="geometry" />
        </mxCell>
        <mxCell id="uYMQuJ2MwAVhW0nK6_kP-169" value="quizBrain.reset( )" style="rounded=1;whiteSpace=wrap;html=1;labelBackgroundColor=none;align=left;fillColor=#dae8fc;strokeColor=#6c8ebf;" vertex="1" parent="uYMQuJ2MwAVhW0nK6_kP-155">
          <mxGeometry x="44" y="150" width="160" height="20" as="geometry" />
        </mxCell>
        <mxCell id="uYMQuJ2MwAVhW0nK6_kP-171" value="scoreKeeper = [ ]" style="rounded=1;whiteSpace=wrap;html=1;labelBackgroundColor=none;align=left;fillColor=#dae8fc;strokeColor=#6c8ebf;" vertex="1" parent="uYMQuJ2MwAVhW0nK6_kP-155">
          <mxGeometry x="44" y="180" width="160" height="20" as="geometry" />
        </mxCell>
        <mxCell id="uYMQuJ2MwAVhW0nK6_kP-173" value="else" style="rounded=1;whiteSpace=wrap;html=1;labelBackgroundColor=none;align=left;fillColor=#dae8fc;strokeColor=#6c8ebf;" vertex="1" parent="uYMQuJ2MwAVhW0nK6_kP-155">
          <mxGeometry x="10" y="220" width="160" height="20" as="geometry" />
        </mxCell>
        <mxCell id="uYMQuJ2MwAVhW0nK6_kP-174" value="if (userPickedAnswer == correctAnswer" style="rounded=1;whiteSpace=wrap;html=1;labelBackgroundColor=none;align=left;fillColor=#dae8fc;strokeColor=#6c8ebf;" vertex="1" parent="uYMQuJ2MwAVhW0nK6_kP-155">
          <mxGeometry x="30" y="240" width="230" height="20" as="geometry" />
        </mxCell>
        <mxCell id="uYMQuJ2MwAVhW0nK6_kP-175" value="scoreKeeper.add - CHECK" style="rounded=1;whiteSpace=wrap;html=1;labelBackgroundColor=none;align=left;fillColor=#dae8fc;strokeColor=#6c8ebf;" vertex="1" parent="uYMQuJ2MwAVhW0nK6_kP-155">
          <mxGeometry x="44" y="260" width="160" height="20" as="geometry" />
        </mxCell>
        <mxCell id="uYMQuJ2MwAVhW0nK6_kP-176" value="else" style="rounded=1;whiteSpace=wrap;html=1;labelBackgroundColor=none;align=left;fillColor=#dae8fc;strokeColor=#6c8ebf;" vertex="1" parent="uYMQuJ2MwAVhW0nK6_kP-155">
          <mxGeometry x="44" y="290" width="160" height="20" as="geometry" />
        </mxCell>
        <mxCell id="uYMQuJ2MwAVhW0nK6_kP-240" value="scoreKeeper.add - CLOSE" style="rounded=1;whiteSpace=wrap;html=1;labelBackgroundColor=none;align=left;fillColor=#dae8fc;strokeColor=#6c8ebf;" vertex="1" parent="uYMQuJ2MwAVhW0nK6_kP-155">
          <mxGeometry x="54" y="310" width="160" height="20" as="geometry" />
        </mxCell>
        <mxCell id="uYMQuJ2MwAVhW0nK6_kP-241" value="quizBrain.nextQuestion( )" style="rounded=1;whiteSpace=wrap;html=1;labelBackgroundColor=none;align=left;fillColor=#dae8fc;strokeColor=#6c8ebf;" vertex="1" parent="uYMQuJ2MwAVhW0nK6_kP-155">
          <mxGeometry x="30" y="341.5" width="160" height="20" as="geometry" />
        </mxCell>
        <mxCell id="uYMQuJ2MwAVhW0nK6_kP-172" style="edgeStyle=orthogonalEdgeStyle;rounded=0;orthogonalLoop=1;jettySize=auto;html=1;entryX=0;entryY=0.5;entryDx=0;entryDy=0;startArrow=classic;startFill=1;strokeColor=#FF0000;strokeWidth=5;" edge="1" parent="uYMQuJ2MwAVhW0nK6_kP-128" source="uYMQuJ2MwAVhW0nK6_kP-18" target="uYMQuJ2MwAVhW0nK6_kP-171">
          <mxGeometry relative="1" as="geometry">
            <Array as="points">
              <mxPoint x="540" y="55" />
              <mxPoint x="540" y="220" />
            </Array>
          </mxGeometry>
        </mxCell>
        <mxCell id="uYMQuJ2MwAVhW0nK6_kP-129" value="" style="group" vertex="1" connectable="0" parent="1">
          <mxGeometry x="1680" y="990" width="520" height="560" as="geometry" />
        </mxCell>
        <mxCell id="uYMQuJ2MwAVhW0nK6_kP-82" value="void &lt;b&gt;checkAnswer&lt;/b&gt; " style="rounded=1;whiteSpace=wrap;html=1;labelBackgroundColor=none;align=left;fillColor=#76608a;strokeColor=#432D57;fontColor=#ffffff;" vertex="1" parent="uYMQuJ2MwAVhW0nK6_kP-129">
          <mxGeometry x="134" y="170" width="160" height="50" as="geometry" />
        </mxCell>
        <mxCell id="uYMQuJ2MwAVhW0nK6_kP-84" value="List&amp;lt;Question&amp;gt; _questionBank [ ]" style="shape=process;whiteSpace=wrap;html=1;backgroundOutline=1;labelBackgroundColor=none;align=left;fillColor=#ffe6cc;strokeColor=#d79b00;" vertex="1" parent="uYMQuJ2MwAVhW0nK6_kP-129">
          <mxGeometry x="50" y="10" width="120" height="60" as="geometry" />
        </mxCell>
        <mxCell id="uYMQuJ2MwAVhW0nK6_kP-85" value="void &lt;b&gt;nextQuestion&lt;/b&gt; ( )" style="rounded=1;whiteSpace=wrap;html=1;labelBackgroundColor=none;align=left;fillColor=#76608a;strokeColor=#432D57;fontColor=#ffffff;" vertex="1" parent="uYMQuJ2MwAVhW0nK6_kP-129">
          <mxGeometry x="168" y="100" width="160" height="50" as="geometry" />
        </mxCell>
        <mxCell id="uYMQuJ2MwAVhW0nK6_kP-94" style="edgeStyle=orthogonalEdgeStyle;rounded=0;orthogonalLoop=1;jettySize=auto;html=1;entryX=0;entryY=0.5;entryDx=0;entryDy=0;startArrow=classic;startFill=1;strokeWidth=3;" edge="1" parent="uYMQuJ2MwAVhW0nK6_kP-129" source="uYMQuJ2MwAVhW0nK6_kP-84" target="uYMQuJ2MwAVhW0nK6_kP-85">
          <mxGeometry y="-30" as="geometry" />
        </mxCell>
        <mxCell id="uYMQuJ2MwAVhW0nK6_kP-86" value="String &lt;b&gt;getQuestionText&lt;/b&gt; ( )" style="rounded=1;whiteSpace=wrap;html=1;labelBackgroundColor=none;align=left;fillColor=#76608a;strokeColor=#432D57;fontColor=#ffffff;" vertex="1" parent="uYMQuJ2MwAVhW0nK6_kP-129">
          <mxGeometry x="168" y="170" width="160" height="50" as="geometry" />
        </mxCell>
        <mxCell id="uYMQuJ2MwAVhW0nK6_kP-95" style="edgeStyle=orthogonalEdgeStyle;rounded=0;orthogonalLoop=1;jettySize=auto;html=1;entryX=0;entryY=0.5;entryDx=0;entryDy=0;startArrow=classic;startFill=1;strokeWidth=3;" edge="1" parent="uYMQuJ2MwAVhW0nK6_kP-129" source="uYMQuJ2MwAVhW0nK6_kP-84" target="uYMQuJ2MwAVhW0nK6_kP-86">
          <mxGeometry y="-30" as="geometry" />
        </mxCell>
        <mxCell id="uYMQuJ2MwAVhW0nK6_kP-87" value="bool &lt;b&gt;getQuestionAnswer&lt;/b&gt; ( )" style="rounded=1;whiteSpace=wrap;html=1;labelBackgroundColor=none;align=left;fillColor=#76608a;strokeColor=#432D57;fontColor=#ffffff;" vertex="1" parent="uYMQuJ2MwAVhW0nK6_kP-129">
          <mxGeometry x="168" y="240" width="160" height="50" as="geometry" />
        </mxCell>
        <mxCell id="uYMQuJ2MwAVhW0nK6_kP-96" style="edgeStyle=orthogonalEdgeStyle;rounded=0;orthogonalLoop=1;jettySize=auto;html=1;entryX=0;entryY=0.5;entryDx=0;entryDy=0;startArrow=classic;startFill=1;strokeWidth=3;" edge="1" parent="uYMQuJ2MwAVhW0nK6_kP-129" source="uYMQuJ2MwAVhW0nK6_kP-84" target="uYMQuJ2MwAVhW0nK6_kP-87">
          <mxGeometry y="-30" as="geometry" />
        </mxCell>
        <mxCell id="uYMQuJ2MwAVhW0nK6_kP-88" value="bool &lt;b&gt;isFinished&lt;/b&gt; ( )" style="rounded=1;whiteSpace=wrap;html=1;labelBackgroundColor=none;align=left;fillColor=#76608a;strokeColor=#432D57;fontColor=#ffffff;" vertex="1" parent="uYMQuJ2MwAVhW0nK6_kP-129">
          <mxGeometry x="168" y="310" width="160" height="50" as="geometry" />
        </mxCell>
        <mxCell id="uYMQuJ2MwAVhW0nK6_kP-97" style="edgeStyle=orthogonalEdgeStyle;rounded=0;orthogonalLoop=1;jettySize=auto;html=1;entryX=0;entryY=0.5;entryDx=0;entryDy=0;startArrow=classic;startFill=1;strokeWidth=3;" edge="1" parent="uYMQuJ2MwAVhW0nK6_kP-129" source="uYMQuJ2MwAVhW0nK6_kP-84" target="uYMQuJ2MwAVhW0nK6_kP-88">
          <mxGeometry y="-30" as="geometry" />
        </mxCell>
        <mxCell id="uYMQuJ2MwAVhW0nK6_kP-89" value="void &lt;b&gt;reset&lt;/b&gt; ( )" style="rounded=1;whiteSpace=wrap;html=1;labelBackgroundColor=none;align=left;fillColor=#76608a;strokeColor=#432D57;fontColor=#ffffff;" vertex="1" parent="uYMQuJ2MwAVhW0nK6_kP-129">
          <mxGeometry x="168" y="380" width="160" height="50" as="geometry" />
        </mxCell>
        <mxCell id="uYMQuJ2MwAVhW0nK6_kP-98" style="edgeStyle=orthogonalEdgeStyle;rounded=0;orthogonalLoop=1;jettySize=auto;html=1;entryX=0;entryY=0.5;entryDx=0;entryDy=0;startArrow=classic;startFill=1;strokeWidth=3;" edge="1" parent="uYMQuJ2MwAVhW0nK6_kP-129" source="uYMQuJ2MwAVhW0nK6_kP-84" target="uYMQuJ2MwAVhW0nK6_kP-89">
          <mxGeometry y="-30" as="geometry" />
        </mxCell>
        <mxCell id="uYMQuJ2MwAVhW0nK6_kP-92" value="&lt;div&gt;_questionBank&lt;/div&gt;&lt;div&gt;Question ( q / a )&lt;br&gt;&lt;/div&gt;" style="shape=cylinder3;whiteSpace=wrap;html=1;boundedLbl=1;backgroundOutline=1;size=15;labelBackgroundColor=none;align=center;fillColor=#fff2cc;strokeColor=#d6b656;" vertex="1" parent="uYMQuJ2MwAVhW0nK6_kP-129">
          <mxGeometry x="320" width="120" height="80" as="geometry" />
        </mxCell>
        <mxCell id="uYMQuJ2MwAVhW0nK6_kP-93" style="edgeStyle=orthogonalEdgeStyle;rounded=0;orthogonalLoop=1;jettySize=auto;html=1;entryX=0;entryY=0.5;entryDx=0;entryDy=0;entryPerimeter=0;strokeWidth=3;startArrow=classic;startFill=1;" edge="1" parent="uYMQuJ2MwAVhW0nK6_kP-129" source="uYMQuJ2MwAVhW0nK6_kP-84" target="uYMQuJ2MwAVhW0nK6_kP-92">
          <mxGeometry y="-30" as="geometry" />
        </mxCell>
        <mxCell id="uYMQuJ2MwAVhW0nK6_kP-133" value="" style="group" vertex="1" connectable="0" parent="uYMQuJ2MwAVhW0nK6_kP-129">
          <mxGeometry width="520" height="510" as="geometry" />
        </mxCell>
        <mxCell id="uYMQuJ2MwAVhW0nK6_kP-134" value="void &lt;b&gt;checkAnswer&lt;/b&gt; " style="rounded=1;whiteSpace=wrap;html=1;labelBackgroundColor=none;align=left;fillColor=#76608a;strokeColor=#432D57;fontColor=#ffffff;" vertex="1" parent="uYMQuJ2MwAVhW0nK6_kP-133">
          <mxGeometry x="134" y="220" width="160" height="50" as="geometry" />
        </mxCell>
        <mxCell id="uYMQuJ2MwAVhW0nK6_kP-135" value="&lt;div style=&quot;font-size: 16px&quot;&gt;&lt;font style=&quot;font-size: 16px&quot;&gt;&amp;nbsp;- class &lt;b&gt;QuizBrain&lt;/b&gt; ....&lt;/font&gt;&lt;/div&gt;" style="whiteSpace=wrap;html=1;labelBackgroundColor=#E6D0DE;align=left;verticalAlign=top;" vertex="1" parent="uYMQuJ2MwAVhW0nK6_kP-133">
          <mxGeometry width="520" height="510" as="geometry" />
        </mxCell>
        <mxCell id="uYMQuJ2MwAVhW0nK6_kP-136" value="List&amp;lt;Question&amp;gt; _questionBank [ ]" style="shape=process;whiteSpace=wrap;html=1;backgroundOutline=1;labelBackgroundColor=none;align=left;fillColor=#ffe6cc;strokeColor=#d79b00;" vertex="1" parent="uYMQuJ2MwAVhW0nK6_kP-133">
          <mxGeometry x="50" y="60" width="120" height="60" as="geometry" />
        </mxCell>
        <mxCell id="uYMQuJ2MwAVhW0nK6_kP-137" value="void &lt;b&gt;nextQuestion&lt;/b&gt; ( )" style="rounded=1;whiteSpace=wrap;html=1;labelBackgroundColor=none;align=left;fillColor=#76608a;strokeColor=#432D57;fontColor=#ffffff;" vertex="1" parent="uYMQuJ2MwAVhW0nK6_kP-133">
          <mxGeometry x="168" y="150" width="160" height="50" as="geometry" />
        </mxCell>
        <mxCell id="uYMQuJ2MwAVhW0nK6_kP-138" style="edgeStyle=orthogonalEdgeStyle;rounded=0;orthogonalLoop=1;jettySize=auto;html=1;entryX=0;entryY=0.5;entryDx=0;entryDy=0;startArrow=classic;startFill=1;strokeWidth=3;" edge="1" parent="uYMQuJ2MwAVhW0nK6_kP-133" source="uYMQuJ2MwAVhW0nK6_kP-136" target="uYMQuJ2MwAVhW0nK6_kP-137">
          <mxGeometry y="20" as="geometry" />
        </mxCell>
        <mxCell id="uYMQuJ2MwAVhW0nK6_kP-139" value="String &lt;b&gt;getQuestionText&lt;/b&gt; ( )" style="rounded=1;whiteSpace=wrap;html=1;labelBackgroundColor=none;align=left;fillColor=#76608a;strokeColor=#432D57;fontColor=#ffffff;" vertex="1" parent="uYMQuJ2MwAVhW0nK6_kP-133">
          <mxGeometry x="168" y="220" width="160" height="50" as="geometry" />
        </mxCell>
        <mxCell id="uYMQuJ2MwAVhW0nK6_kP-140" style="edgeStyle=orthogonalEdgeStyle;rounded=0;orthogonalLoop=1;jettySize=auto;html=1;entryX=0;entryY=0.5;entryDx=0;entryDy=0;startArrow=classic;startFill=1;strokeWidth=3;" edge="1" parent="uYMQuJ2MwAVhW0nK6_kP-133" source="uYMQuJ2MwAVhW0nK6_kP-136" target="uYMQuJ2MwAVhW0nK6_kP-139">
          <mxGeometry y="20" as="geometry" />
        </mxCell>
        <mxCell id="uYMQuJ2MwAVhW0nK6_kP-141" value="bool &lt;b&gt;getQuestionAnswer&lt;/b&gt; ( )" style="rounded=1;whiteSpace=wrap;html=1;labelBackgroundColor=none;align=left;fillColor=#76608a;strokeColor=#432D57;fontColor=#ffffff;" vertex="1" parent="uYMQuJ2MwAVhW0nK6_kP-133">
          <mxGeometry x="168" y="290" width="160" height="50" as="geometry" />
        </mxCell>
        <mxCell id="uYMQuJ2MwAVhW0nK6_kP-142" style="edgeStyle=orthogonalEdgeStyle;rounded=0;orthogonalLoop=1;jettySize=auto;html=1;entryX=0;entryY=0.5;entryDx=0;entryDy=0;startArrow=classic;startFill=1;strokeWidth=3;" edge="1" parent="uYMQuJ2MwAVhW0nK6_kP-133" source="uYMQuJ2MwAVhW0nK6_kP-136" target="uYMQuJ2MwAVhW0nK6_kP-141">
          <mxGeometry y="20" as="geometry" />
        </mxCell>
        <mxCell id="uYMQuJ2MwAVhW0nK6_kP-143" value="bool &lt;b&gt;isFinished&lt;/b&gt; ( )" style="rounded=1;whiteSpace=wrap;html=1;labelBackgroundColor=none;align=left;fillColor=#76608a;strokeColor=#432D57;fontColor=#ffffff;" vertex="1" parent="uYMQuJ2MwAVhW0nK6_kP-133">
          <mxGeometry x="168" y="360" width="160" height="50" as="geometry" />
        </mxCell>
        <mxCell id="uYMQuJ2MwAVhW0nK6_kP-144" style="edgeStyle=orthogonalEdgeStyle;rounded=0;orthogonalLoop=1;jettySize=auto;html=1;entryX=0;entryY=0.5;entryDx=0;entryDy=0;startArrow=classic;startFill=1;strokeWidth=3;" edge="1" parent="uYMQuJ2MwAVhW0nK6_kP-133" source="uYMQuJ2MwAVhW0nK6_kP-136" target="uYMQuJ2MwAVhW0nK6_kP-143">
          <mxGeometry y="20" as="geometry" />
        </mxCell>
        <mxCell id="uYMQuJ2MwAVhW0nK6_kP-145" value="void &lt;b&gt;reset&lt;/b&gt; ( )" style="rounded=1;whiteSpace=wrap;html=1;labelBackgroundColor=none;align=left;fillColor=#76608a;strokeColor=#432D57;fontColor=#ffffff;" vertex="1" parent="uYMQuJ2MwAVhW0nK6_kP-133">
          <mxGeometry x="168" y="430" width="160" height="50" as="geometry" />
        </mxCell>
        <mxCell id="uYMQuJ2MwAVhW0nK6_kP-146" style="edgeStyle=orthogonalEdgeStyle;rounded=0;orthogonalLoop=1;jettySize=auto;html=1;entryX=0;entryY=0.5;entryDx=0;entryDy=0;startArrow=classic;startFill=1;strokeWidth=3;" edge="1" parent="uYMQuJ2MwAVhW0nK6_kP-133" source="uYMQuJ2MwAVhW0nK6_kP-136" target="uYMQuJ2MwAVhW0nK6_kP-145">
          <mxGeometry y="20" as="geometry" />
        </mxCell>
        <mxCell id="uYMQuJ2MwAVhW0nK6_kP-148" style="edgeStyle=orthogonalEdgeStyle;rounded=0;orthogonalLoop=1;jettySize=auto;html=1;entryX=0;entryY=0.5;entryDx=0;entryDy=0;entryPerimeter=0;strokeWidth=3;startArrow=classic;startFill=1;" edge="1" parent="uYMQuJ2MwAVhW0nK6_kP-133" source="uYMQuJ2MwAVhW0nK6_kP-136" target="uYMQuJ2MwAVhW0nK6_kP-147">
          <mxGeometry y="20" as="geometry" />
        </mxCell>
        <mxCell id="uYMQuJ2MwAVhW0nK6_kP-150" value="Answer" style="shape=cylinder3;whiteSpace=wrap;html=1;boundedLbl=1;backgroundOutline=1;size=15;labelBackgroundColor=none;align=center;fillColor=#fff2cc;strokeColor=#d6b656;verticalAlign=bottom;" vertex="1" parent="uYMQuJ2MwAVhW0nK6_kP-133">
          <mxGeometry x="350" y="120" width="120" height="50" as="geometry" />
        </mxCell>
        <mxCell id="uYMQuJ2MwAVhW0nK6_kP-149" value="&lt;div&gt;&lt;br&gt;&lt;/div&gt;&lt;div&gt;Question&lt;br&gt;&lt;/div&gt;" style="shape=cylinder3;whiteSpace=wrap;html=1;boundedLbl=1;backgroundOutline=1;size=15;labelBackgroundColor=none;align=center;fillColor=#fff2cc;strokeColor=#d6b656;verticalAlign=bottom;" vertex="1" parent="uYMQuJ2MwAVhW0nK6_kP-133">
          <mxGeometry x="350" y="100" width="120" height="50" as="geometry" />
        </mxCell>
        <mxCell id="uYMQuJ2MwAVhW0nK6_kP-147" value="&lt;div&gt;_questionBank&lt;/div&gt;&lt;div&gt;Question ( q / a )&lt;br&gt;&lt;/div&gt;" style="shape=cylinder3;whiteSpace=wrap;html=1;boundedLbl=1;backgroundOutline=1;size=15;labelBackgroundColor=none;align=center;fillColor=#fff2cc;strokeColor=#d6b656;" vertex="1" parent="uYMQuJ2MwAVhW0nK6_kP-133">
          <mxGeometry x="350" y="49.5" width="120" height="80" as="geometry" />
        </mxCell>
        <mxCell id="uYMQuJ2MwAVhW0nK6_kP-131" value="" style="group" vertex="1" connectable="0" parent="1">
          <mxGeometry x="336" y="-40" width="604" height="230" as="geometry" />
        </mxCell>
        <mxCell id="uYMQuJ2MwAVhW0nK6_kP-2" value="&lt;div&gt;return&lt;/div&gt;&lt;div&gt;&lt;b&gt;MaterialApp( )&lt;/b&gt;&lt;br&gt;&lt;/div&gt;" style="rounded=1;whiteSpace=wrap;html=1;fillColor=#ffff88;strokeColor=#36393d;" vertex="1" parent="uYMQuJ2MwAVhW0nK6_kP-131">
          <mxGeometry width="120" height="40" as="geometry" />
        </mxCell>
        <mxCell id="uYMQuJ2MwAVhW0nK6_kP-3" value="&lt;div&gt;home&lt;/div&gt;&lt;div&gt;&lt;b&gt;Scaffold( )&lt;/b&gt;&lt;br&gt;&lt;/div&gt;" style="rounded=1;whiteSpace=wrap;html=1;" vertex="1" parent="uYMQuJ2MwAVhW0nK6_kP-131">
          <mxGeometry x="164" width="120" height="40" as="geometry" />
        </mxCell>
        <mxCell id="uYMQuJ2MwAVhW0nK6_kP-8" style="edgeStyle=orthogonalEdgeStyle;rounded=0;orthogonalLoop=1;jettySize=auto;html=1;entryX=0;entryY=0.5;entryDx=0;entryDy=0;strokeWidth=3;" edge="1" parent="uYMQuJ2MwAVhW0nK6_kP-131" source="uYMQuJ2MwAVhW0nK6_kP-2" target="uYMQuJ2MwAVhW0nK6_kP-3">
          <mxGeometry x="-26" y="-10" as="geometry" />
        </mxCell>
        <mxCell id="uYMQuJ2MwAVhW0nK6_kP-4" value="&lt;div&gt;backgroundColor&lt;b&gt;: Colors...&lt;/b&gt;&lt;/div&gt;" style="rounded=1;whiteSpace=wrap;html=1;align=left;verticalAlign=middle;fillColor=#f8cecc;strokeColor=#b85450;" vertex="1" parent="uYMQuJ2MwAVhW0nK6_kP-131">
          <mxGeometry x="264" y="30" width="160" height="30" as="geometry" />
        </mxCell>
        <mxCell id="uYMQuJ2MwAVhW0nK6_kP-6" value="&lt;div&gt;body&lt;/div&gt;&lt;div&gt;&lt;b&gt;SafeArea( )&lt;/b&gt;&lt;br&gt;&lt;/div&gt;" style="rounded=1;whiteSpace=wrap;html=1;" vertex="1" parent="uYMQuJ2MwAVhW0nK6_kP-131">
          <mxGeometry x="264" y="70" width="120" height="40" as="geometry" />
        </mxCell>
        <mxCell id="uYMQuJ2MwAVhW0nK6_kP-9" style="edgeStyle=orthogonalEdgeStyle;rounded=0;orthogonalLoop=1;jettySize=auto;html=1;entryX=0;entryY=0.5;entryDx=0;entryDy=0;strokeWidth=3;" edge="1" parent="uYMQuJ2MwAVhW0nK6_kP-131" source="uYMQuJ2MwAVhW0nK6_kP-3" target="uYMQuJ2MwAVhW0nK6_kP-6">
          <mxGeometry x="-26" y="-10" as="geometry" />
        </mxCell>
        <mxCell id="uYMQuJ2MwAVhW0nK6_kP-10" value="&lt;div&gt;child:&lt;b&gt;&lt;br&gt;&lt;/b&gt;&lt;/div&gt;&lt;div&gt;&lt;b&gt;Padding&lt;/b&gt;( )&lt;br&gt;&lt;/div&gt;" style="rounded=1;whiteSpace=wrap;html=1;align=center;verticalAlign=middle;" vertex="1" parent="uYMQuJ2MwAVhW0nK6_kP-131">
          <mxGeometry x="364" y="120" width="110" height="40" as="geometry" />
        </mxCell>
        <mxCell id="uYMQuJ2MwAVhW0nK6_kP-11" style="edgeStyle=orthogonalEdgeStyle;rounded=0;orthogonalLoop=1;jettySize=auto;html=1;entryX=0;entryY=0.5;entryDx=0;entryDy=0;strokeWidth=3;" edge="1" parent="uYMQuJ2MwAVhW0nK6_kP-131" source="uYMQuJ2MwAVhW0nK6_kP-6" target="uYMQuJ2MwAVhW0nK6_kP-10">
          <mxGeometry x="-26" y="-10" as="geometry" />
        </mxCell>
        <mxCell id="uYMQuJ2MwAVhW0nK6_kP-12" value="&lt;div&gt;padding:&lt;b&gt; EdgeInsets&lt;/b&gt;...&lt;/div&gt;" style="rounded=1;whiteSpace=wrap;html=1;align=left;verticalAlign=middle;fillColor=#f8cecc;strokeColor=#b85450;" vertex="1" parent="uYMQuJ2MwAVhW0nK6_kP-131">
          <mxGeometry x="454" y="150" width="150" height="30" as="geometry" />
        </mxCell>
        <mxCell id="uYMQuJ2MwAVhW0nK6_kP-13" value="&lt;div&gt;child:&lt;b&gt; &lt;br&gt;&lt;/b&gt;&lt;/div&gt;&lt;div&gt;&lt;b&gt;QuizPage( )&lt;br&gt;&lt;/b&gt;&lt;/div&gt;" style="rounded=1;whiteSpace=wrap;html=1;align=center;verticalAlign=top;fillColor=#d5e8d4;strokeColor=#82b366;" vertex="1" parent="uYMQuJ2MwAVhW0nK6_kP-131">
          <mxGeometry x="454" y="190" width="110" height="40" as="geometry" />
        </mxCell>
        <mxCell id="uYMQuJ2MwAVhW0nK6_kP-16" style="edgeStyle=orthogonalEdgeStyle;rounded=0;orthogonalLoop=1;jettySize=auto;html=1;entryX=0;entryY=0.5;entryDx=0;entryDy=0;strokeWidth=3;" edge="1" parent="uYMQuJ2MwAVhW0nK6_kP-131" source="uYMQuJ2MwAVhW0nK6_kP-10" target="uYMQuJ2MwAVhW0nK6_kP-13">
          <mxGeometry x="-26" y="-10" as="geometry" />
        </mxCell>
        <mxCell id="uYMQuJ2MwAVhW0nK6_kP-132" style="edgeStyle=orthogonalEdgeStyle;rounded=0;orthogonalLoop=1;jettySize=auto;html=1;entryX=0;entryY=0.5;entryDx=0;entryDy=0;startArrow=classic;startFill=1;strokeWidth=5;strokeColor=#FF0000;" edge="1" parent="1" source="uYMQuJ2MwAVhW0nK6_kP-42" target="uYMQuJ2MwAVhW0nK6_kP-136">
          <mxGeometry relative="1" as="geometry" />
        </mxCell>
        <mxCell id="uYMQuJ2MwAVhW0nK6_kP-151" style="edgeStyle=orthogonalEdgeStyle;rounded=0;orthogonalLoop=1;jettySize=auto;html=1;startArrow=classic;startFill=1;strokeWidth=3;exitX=1;exitY=0.5;exitDx=0;exitDy=0;" edge="1" parent="1" source="uYMQuJ2MwAVhW0nK6_kP-58" target="uYMQuJ2MwAVhW0nK6_kP-150">
          <mxGeometry relative="1" as="geometry">
            <mxPoint x="1620" y="1240" as="targetPoint" />
            <Array as="points">
              <mxPoint x="1490" y="1420" />
              <mxPoint x="1490" y="1560" />
              <mxPoint x="2090" y="1560" />
            </Array>
          </mxGeometry>
        </mxCell>
        <mxCell id="uYMQuJ2MwAVhW0nK6_kP-152" style="edgeStyle=orthogonalEdgeStyle;rounded=0;orthogonalLoop=1;jettySize=auto;html=1;startArrow=classic;startFill=1;strokeWidth=3;" edge="1" parent="1" source="uYMQuJ2MwAVhW0nK6_kP-71">
          <mxGeometry relative="1" as="geometry">
            <mxPoint x="2090" y="1160" as="targetPoint" />
          </mxGeometry>
        </mxCell>
        <mxCell id="uYMQuJ2MwAVhW0nK6_kP-161" style="edgeStyle=orthogonalEdgeStyle;rounded=0;orthogonalLoop=1;jettySize=auto;html=1;startArrow=classic;startFill=1;strokeColor=#FF0000;strokeWidth=6;" edge="1" parent="1" source="uYMQuJ2MwAVhW0nK6_kP-157" target="uYMQuJ2MwAVhW0nK6_kP-143">
          <mxGeometry relative="1" as="geometry">
            <mxPoint x="1850" y="1390" as="targetPoint" />
            <Array as="points">
              <mxPoint x="1570" y="570" />
              <mxPoint x="1570" y="1381" />
            </Array>
          </mxGeometry>
        </mxCell>
        <mxCell id="uYMQuJ2MwAVhW0nK6_kP-170" style="edgeStyle=orthogonalEdgeStyle;rounded=0;orthogonalLoop=1;jettySize=auto;html=1;entryX=0;entryY=0.75;entryDx=0;entryDy=0;startArrow=classic;startFill=1;strokeColor=#FF0000;strokeWidth=5;" edge="1" parent="1" source="uYMQuJ2MwAVhW0nK6_kP-169" target="uYMQuJ2MwAVhW0nK6_kP-145">
          <mxGeometry relative="1" as="geometry" />
        </mxCell>
      </root>
    </mxGraphModel>
  </diagram>
</mxfile>
